<?xml version="1.0" encoding="UTF-8"?>
<svg width="24px" height="24px" version="1.1" viewBox="0 0 752 752" xmlns="http://www.w3.org/2000/svg">
 <g>
  <path d="m225 261.73c-7.3711-2.3516-15.258 1.6914-17.648 9.0508l-12.336 37.887c-2.4453 7.3945 1.5547 15.371 8.9375 17.84l15.094 4.9062c-0.60547 5.0039-1.0195 9.9375-1.2266 14.668l14.801 0.65234c0.19141-4.5 0.59766-9.207 1.1758-13.902v-0.003906c0.97656-6.7461-3.0703-13.211-9.5664-15.281l-14.949-4.8633 11.922-36.621 15 4.8828v0.003906c6.4258 2.0273 13.391-0.76172 16.648-6.6602 6.7383-12.414 15.051-23.906 24.73-34.195 4.625-4.9141 5.1484-12.41 1.25-17.922l-9.2656-12.719 31.078-22.605 9.3164 12.801c4.043 5.4062 11.336 7.2148 17.434 4.3203 12.738-6.0742 26.207-10.477 40.07-13.09 6.6445-1.2344 11.473-7.0195 11.492-13.777v-15.688h38.477l0.003906 15.688c0.019532 6.7539 4.8398 12.539 11.484 13.777 13.926 2.6289 27.453 7.0586 40.238 13.172 6.0898 2.8164 13.324 0.96094 17.309-4.4414l9.2734-12.734 31.078 22.605-9.3008 12.777-0.003907 0.003906c-3.8672 5.5195-3.3203 12.996 1.3125 17.891 9.6758 10.281 17.988 21.762 24.727 34.168 3.2656 5.9062 10.246 8.6914 16.68 6.6562l14.949-4.8672 11.922 36.613-14.852 4.8398c-6.5 2.043-10.566 8.4844-9.6211 15.23 1.7891 13.957 1.7891 28.086 0 42.043-0.95312 6.7188 3.0703 13.148 9.5312 15.23l14.949 4.8633-11.922 36.621-15-4.8828v-0.003906c-6.4258-2.0156-13.387 0.76953-16.648 6.6602-6.7383 12.41-15.051 23.902-24.73 34.188-4.625 4.918-5.1484 12.414-1.25 17.93l9.2656 12.719-31.078 22.605-9.3164-12.801h-0.003906c-4.0391-5.4062-11.332-7.2148-17.434-4.3203-12.734 6.0742-26.203 10.477-40.07 13.09l2.7734 14.531h0.003906c14.926-2.8281 29.434-7.5508 43.16-14.059l9.332 12.809c2.6523 3.6367 6.8867 5.7773 11.391 5.7578 2.9609 0 5.8555-0.91797 8.2695-2.6367l32.277-23.473v0.003906c3.0742-2.2188 5.1211-5.5859 5.6758-9.332 0.55469-3.6445-0.37109-7.3594-2.5742-10.316l-9.3242-12.734c10.266-10.961 19.109-23.164 26.328-36.332l15.133 4.9297v-0.003906c7.3711 2.3555 15.258-1.6875 17.648-9.0469l12.359-37.887c2.4258-7.3867-1.5703-15.344-8.9414-17.812l-15.094-4.9062c1.875-14.867 1.875-29.914 0-44.781l15.176-4.9375c7.3359-2.4766 11.301-10.406 8.8789-17.758l-12.344-37.922 0.003906-0.003907c-1.1445-3.5508-3.6523-6.5078-6.9727-8.2109-3.3203-1.7031-7.1836-2.0156-10.734-0.86719l-15.09 4.9141c-7.2148-13.168-16.062-25.375-26.328-36.332l9.2266-12.676c2.2422-2.9727 3.1953-6.7227 2.6406-10.406-0.55859-3.75-2.6094-7.1211-5.6875-9.3359l-32.344-23.523c-6.3008-4.4492-15-3.0352-19.574 3.1719l-9.3359 12.816c-13.566-6.4219-27.887-11.098-42.625-13.926v-15.773c0-7.7656-6.293-14.062-14.059-14.062h-39.957c-7.7656 0-14.062 6.2969-14.062 14.062v15.773c-14.734 2.8281-29.059 7.5039-42.621 13.926l-9.332-12.809c-4.5977-6.2344-13.352-7.625-19.66-3.1211l-32.277 23.473c-3.0703 2.2188-5.1172 5.582-5.6758 9.3281-0.55469 3.6445 0.375 7.3594 2.5742 10.316l9.3164 12.766c-10.262 10.957-19.109 23.164-26.328 36.332z"/>
  <path d="m546.2 353.8c0.035157-51.969-27.195-100.15-71.734-126.93-44.539-26.777-99.859-28.234-145.75-3.8359-45.887 24.402-75.609 71.082-78.309 122.98l14.801 0.73828c1.7461-33.246 15.879-64.637 39.617-87.98s55.355-36.953 88.629-38.145c33.273-1.1914 65.785 10.121 91.129 31.711 25.348 21.59 41.688 51.887 45.809 84.922 4.1172 33.039-4.2891 66.422-23.559 93.57-19.27 27.152-48.012 46.098-80.559 53.113l3.0938 14.473c33.02-7.2227 62.59-25.484 83.828-51.777 21.242-26.293 32.879-59.043 33-92.844z"/>
  <path d="m168.81 383.4h45.879l35.688 157.04c0.76953 3.3711 3.7734 5.7656 7.2305 5.7578h125.8c3.3008-0.003906 6.2031-2.1914 7.1094-5.3672l26.93-94.16c1.2773-4.4688 0.37891-9.2812-2.4219-12.988-2.8008-3.7109-7.1836-5.8867-11.832-5.8789h-163.21l-12.156-53.441c-0.76953-3.3672-3.7617-5.7578-7.2148-5.7578h-51.801zm234.38 59.199-25.367 88.793h-114.29l-20.188-88.797z"/>
  <path d="m331.6 583.19c0 5.8906 2.3398 11.535 6.5039 15.699 4.1641 4.1641 9.8086 6.5 15.695 6.5 5.8906 0 11.535-2.3359 15.699-6.5s6.5-9.8086 6.5-15.699c0-5.8867-2.3359-11.531-6.5-15.695-4.1641-4.1641-9.8086-6.5039-15.699-6.5039-5.8867 0-11.531 2.3398-15.695 6.5039-4.1641 4.1641-6.5039 9.8086-6.5039 15.695zm29.598 0h0.003906c0 2.9961-1.8047 5.6914-4.5703 6.8398-2.7656 1.1445-5.9453 0.51172-8.0625-1.6055-2.1172-2.1172-2.75-5.3008-1.6055-8.0625 1.1445-2.7656 3.8438-4.5703 6.8359-4.5703 1.9648 0 3.8477 0.78125 5.2344 2.168 1.3867 1.3867 2.168 3.2695 2.168 5.2305z"/>
  <path d="m265.01 583.19c0 5.8906 2.3359 11.535 6.5 15.699 4.1641 4.1641 9.8086 6.5 15.695 6.5 5.8906 0 11.535-2.3359 15.699-6.5 4.1641-4.1641 6.5-9.8086 6.5-15.699 0-5.8867-2.3359-11.531-6.5-15.695-4.1641-4.1641-9.8086-6.5039-15.699-6.5039-5.8867 0-11.531 2.3398-15.695 6.5039-4.1641 4.1641-6.5 9.8086-6.5 15.695zm29.598 0c0 2.9961-1.8047 5.6914-4.5703 6.8398-2.7617 1.1445-5.9453 0.51172-8.0625-1.6055-2.1172-2.1172-2.75-5.3008-1.6055-8.0625 1.1484-2.7656 3.8438-4.5703 6.8359-4.5703 1.9648 0 3.8477 0.78125 5.2344 2.168 1.3867 1.3867 2.168 3.2695 2.168 5.2305z"/>
  <path d="m161.41 435.2h44.398v14.801h-44.398z"/>
  <path d="m146.61 479.6h44.398v14.801h-44.398z"/>
  <path d="m183.61 524h44.398v14.801h-44.398z"/>
  <path d="m302 383.4h192.39v14.801h-192.39z"/>
  <path d="m472.2 368.6c1.9609 0 3.8438-0.78125 5.2305-2.168 1.3867-1.3867 2.168-3.2695 2.168-5.2305v-59.199c0-1.9609-0.78125-3.8438-2.168-5.2305-1.3867-1.3906-3.2695-2.168-5.2305-2.168h-29.602c-4.0859 0-7.3984 3.3125-7.3984 7.3984v59.199c0 1.9609 0.78125 3.8438 2.168 5.2305 1.3867 1.3867 3.2695 2.168 5.2305 2.168zm-22.199-59.199h14.801v44.398h-14.801z"/>
  <path d="m413 368.6c1.9609 0 3.8438-0.78125 5.2305-2.168 1.3906-1.3867 2.168-3.2695 2.168-5.2305v-96.195c0-1.9648-0.77734-3.8477-2.168-5.2344-1.3867-1.3867-3.2695-2.168-5.2305-2.168h-29.598c-4.0898 0-7.4023 3.3125-7.4023 7.4023v96.195c0 1.9609 0.78125 3.8438 2.168 5.2305 1.3867 1.3867 3.2695 2.168 5.2344 2.168zm-22.199-96.195h14.801v81.395h-14.801z"/>
  <path d="m353.8 368.6c1.9648 0 3.8477-0.78125 5.2344-2.168 1.3867-1.3867 2.168-3.2695 2.168-5.2305v-37c0-1.9609-0.78125-3.8438-2.168-5.2305-1.3867-1.3906-3.2695-2.168-5.2344-2.168h-29.598c-4.0859 0-7.3984 3.3125-7.3984 7.3984v37c0 1.9609 0.77734 3.8438 2.168 5.2305 1.3867 1.3867 3.2695 2.168 5.2305 2.168zm-22.199-37h14.801v22.199h-14.801z"/>
 </g>
</svg>
