<?xml version="1.0" encoding="iso-8859-1"?>
<!-- Generator: Adobe Illustrator 18.0.0, SVG Export Plug-In . SVG Version: 6.00 Build 0)  -->
<!DOCTYPE svg PUBLIC "-//W3C//DTD SVG 1.1//EN" "http://www.w3.org/Graphics/SVG/1.1/DTD/svg11.dtd">
<svg version="1.1" id="Capa_1" xmlns="http://www.w3.org/2000/svg" xmlns:xlink="http://www.w3.org/1999/xlink" x="0px" y="0px"
	 viewBox="0 0 460 460" style="enable-background:new 0 0 460 460;" xml:space="preserve">
<g id="XMLID_21_">
	<circle id="XMLID_24_" cx="244.6" cy="190.379" r="27.041" fill="#637381"/>
	<path id="XMLID_882_" d="M390.514,358.183c-16.539,0-29.946,13.407-29.946,29.946c0,16.539,13.407,29.946,29.946,29.946
		c16.539,0,29.946-13.407,29.946-29.946C420.46,371.59,407.052,358.183,390.514,358.183z M390.513,396.732
		c-4.751,0-8.603-3.852-8.603-8.603c0-4.751,3.852-8.603,8.603-8.603c4.751,0,8.603,3.852,8.603,8.603
		C399.116,392.88,395.265,396.732,390.513,396.732z" fill="#637381"/>
	<path id="XMLID_892_" d="M209.193,358.183c-16.539,0-29.946,13.407-29.946,29.946c0,16.539,13.407,29.946,29.946,29.946
		s29.946-13.407,29.946-29.946C239.139,371.59,225.732,358.183,209.193,358.183z M209.193,396.732c-4.751,0-8.603-3.852-8.603-8.603
		c0-4.751,3.852-8.603,8.603-8.603c4.751,0,8.603,3.852,8.603,8.603C217.796,392.88,213.944,396.732,209.193,396.732z" fill="#637381"/>
	<path id="XMLID_905_" d="M30.766,300.876h109.007c5.624,0,10.184-4.56,10.184-10.184v-47.317c0-5.624-4.56-10.184-10.184-10.184
		H30.766c-5.624,0-10.184,4.56-10.184,10.184v47.317C20.582,296.317,25.142,300.876,30.766,300.876z" fill="#637381"/>
	<path id="XMLID_906_" d="M44.105,146.199v47.318c0,5.624,4.56,10.184,10.184,10.184h109.007c5.624,0,10.184-4.56,10.184-10.184
		v-47.318c0-5.624-4.559-10.184-10.184-10.184H54.289C48.665,136.016,44.105,140.575,44.105,146.199z" fill="#637381"/>
	<path id="XMLID_907_" d="M41.491,109.61h109.007c5.624,0,10.184-4.56,10.184-10.184V52.109c0-5.624-4.559-10.184-10.184-10.184
		H41.491c-5.625,0-10.184,4.559-10.184,10.184v47.318C31.307,105.051,35.866,109.61,41.491,109.61z" fill="#637381"/>
	<path id="XMLID_922_" d="M460,384.645c0-35.2-28.637-63.838-63.837-63.838h-15.067l-34.006-26.849l7.02-11.975
		c2.737-4.669,1.171-10.674-3.499-13.412c-4.668-2.738-10.675-1.172-13.412,3.499l-3.021,5.153c2.577,3.752,4.145,8.26,4.286,13.147
		c0.363,12.641-9.029,24.772-24.802,25.226c0.158,2.271,1.109,4.453,2.731,6.131l-13.077-0.029l-0.007-0.01
		c-2.587-3.554-6.764-5.6-11.158-5.474c-10.771,0.31-29.124,0.837-31.531,0.907c-7.081,0.204-13.234-4.214-15.586-10.498
		l-16.715-44.876l26.72,37.805c2.449,3.465,6.428,5.303,10.357,5.175l48.928-1.406c6.763-0.194,12.089-5.835,11.894-12.598
		c-0.195-6.764-5.821-12.111-12.598-11.894l-42.361,1.217l-22.928-32.44l19.469,16.293l1.311-11.661
		c1.127-10.025-6.087-19.066-16.112-20.193l-32.372-3.639c-10.025-1.127-19.066,6.087-20.193,16.112l-4.524,40.245v-31.561
		c0-8.119-6.582-14.702-14.702-14.702c-8.119,0-14.702,6.582-14.702,14.702v65.288l-151.838,0.357
		C6.548,318.867-0.019,325.464,0,333.584c0.019,8.108,6.597,14.667,14.701,14.667c0.011,0,0.024,0,0.035,0l150.373-0.354
		l5.083,9.726c9.167-11.694,23.322-19.043,39.001-19.043c29.069,0,52.2,25.162,49.303,54.46h82.714
		c-2.896-29.29,20.22-54.46,49.303-54.46c6.731,0,13.552,1.319,20.006,4.234c15.339,6.928,29.878,22.464,29.878,41.831
		c0,5.413,4.388,9.801,9.801,9.801C455.612,394.447,460,390.059,460,384.645z M331.894,319.881l5.187-8.849l13.642,10.771
		l-20.276-0.044C330.99,321.201,331.483,320.582,331.894,319.881z" fill="#637381"/>
</g>
<g>
</g>
<g>
</g>
<g>
</g>
<g>
</g>
<g>
</g>
<g>
</g>
<g>
</g>
<g>
</g>
<g>
</g>
<g>
</g>
<g>
</g>
<g>
</g>
<g>
</g>
<g>
</g>
<g>
</g>
</svg>
